<svg xmlns="http://www.w3.org/2000/svg"  viewBox="0 0 64 64" width="64px" height="64px"><radialGradient id="GRpVixdlwmrkz5DwvhaR5a" cx="36.833" cy="35.917" r="26" gradientUnits="userSpaceOnUse" spreadMethod="reflect"><stop offset="0" stop-color="#f4e9c3"/><stop offset=".219" stop-color="#f8eecd"/><stop offset=".644" stop-color="#fdf4dc"/><stop offset="1" stop-color="#fff6e1"/></radialGradient><path fill="url(#GRpVixdlwmrkz5DwvhaR5a)" d="M10,8L10,8c2.209,0,4-1.791,4-4v0c0-2.209-1.791-4-4-4h0C7.791,0,6,1.791,6,4v0 C6,6.209,7.791,8,10,8z"/><radialGradient id="GRpVixdlwmrkz5DwvhaR5b" cx="31.417" cy="29.917" r="28.77" gradientUnits="userSpaceOnUse" spreadMethod="reflect"><stop offset="0" stop-color="#f4e9c3"/><stop offset=".219" stop-color="#f8eecd"/><stop offset=".644" stop-color="#fdf4dc"/><stop offset="1" stop-color="#fff6e1"/></radialGradient><path fill="url(#GRpVixdlwmrkz5DwvhaR5b)" d="M7.5,64L7.5,64c1.933,0,3.5-1.567,3.5-3.5v0c0-1.933-1.567-3.5-3.5-3.5h0 C5.567,57,4,58.567,4,60.5v0C4,62.433,5.567,64,7.5,64z"/><radialGradient id="GRpVixdlwmrkz5DwvhaR5c" cx="32" cy="32" r="32" gradientUnits="userSpaceOnUse" spreadMethod="reflect"><stop offset="0" stop-color="#f4e9c3"/><stop offset=".219" stop-color="#f8eecd"/><stop offset=".644" stop-color="#fdf4dc"/><stop offset="1" stop-color="#fff6e1"/></radialGradient><path fill="url(#GRpVixdlwmrkz5DwvhaR5c)" d="M54,25h3.5c2.485,0,4.5-2.015,4.5-4.5v0c0-2.485-2.015-4.5-4.5-4.5H44c-2.209,0-4-1.791-4-4 v0c0-2.209,1.791-4,4-4h2c2.209,0,4-1.791,4-4v0c0-2.209-1.791-4-4-4L22,0c-2.209,0-4,1.791-4,4v0c0,2.209,1.791,4,4,4h2 c1.657,0,3,1.343,3,3v0c0,1.657-1.343,3-3,3H7.5C5.567,14,4,15.567,4,17.5v0C4,19.433,5.567,21,7.5,21H10c1.657,0,3,1.343,3,3v0 c0,1.657-1.343,3-3,3H5c-2.761,0-5,2.239-5,5v0c0,2.761,2.239,5,5,5h1.5c1.933,0,3.5,1.567,3.5,3.5v0c0,1.933-1.567,3.5-3.5,3.5H6 c-2.209,0-4,1.791-4,4v0c0,2.209,1.791,4,4,4h11.5c1.381,0,2.5,1.119,2.5,2.5v0c0,1.381-1.119,2.5-2.5,2.5h0 c-1.933,0-3.5,1.567-3.5,3.5v0c0,1.933,1.567,3.5,3.5,3.5H49c1.657,0,3-1.343,3-3v0c0-1.657-1.343-3-3-3h-1c-1.105,0-2-0.895-2-2v0 c0-1.105,0.895-2,2-2h12c2.209,0,4-1.791,4-4v0c0-2.209-1.791-4-4-4h-1.5c-1.381,0-2.5-1.119-2.5-2.5v0c0-1.381,1.119-2.5,2.5-2.5 H59c2.209,0,4-1.791,4-4v0c0-2.209-1.791-4-4-4h-5c-2.209,0-4-1.791-4-4v0C50,26.791,51.791,25,54,25z"/><g><linearGradient id="GRpVixdlwmrkz5DwvhaR5d" x1="32" x2="32" y1="51.109" y2="8.15" gradientUnits="userSpaceOnUse" spreadMethod="reflect"><stop offset=".04" stop-color="#0277bd"/><stop offset=".371" stop-color="#039be5"/><stop offset=".476" stop-color="#25aded"/><stop offset=".59" stop-color="#43bdf4"/><stop offset=".654" stop-color="#4fc3f7"/><stop offset=".663" stop-color="#54c5f7"/><stop offset=".751" stop-color="#7dd3f9"/><stop offset=".831" stop-color="#9addfb"/><stop offset=".899" stop-color="#ade3fc"/><stop offset=".948" stop-color="#b3e5fc"/></linearGradient><path fill="url(#GRpVixdlwmrkz5DwvhaR5d)" d="M10,19h44v9H10V19z M54,31H10v9h44V31z M54,16v-5c0-2.209-1.791-4-4-4H14 c-2.209,0-4,1.791-4,4v5H54z M10,43v5c0,2.209,1.791,4,4,4h22v6.59c0,0.779,0.631,1.41,1.41,1.41h0.006 c0.374,0,0.733-0.149,0.997-0.413L46,52h4c2.209,0,4-1.791,4-4v-5H10z"/><linearGradient id="GRpVixdlwmrkz5DwvhaR5e" x1="36.889" x2="36.889" y1="60" y2="14.395" gradientUnits="userSpaceOnUse" spreadMethod="reflect"><stop offset=".142" stop-color="#01579b"/><stop offset=".339" stop-color="#016fb5"/><stop offset=".522" stop-color="#0288d1"/><stop offset=".786" stop-color="#039be5"/><stop offset=".969" stop-color="#81d4fa"/></linearGradient><path fill="url(#GRpVixdlwmrkz5DwvhaR5e)" d="M48.899,19H54v9H41.619L48.899,19z M54,31H37.979l-7.28,9H54V31z M54,16v-1.605L52.54,16H54z M27.058,43l-7.28,9H36v6.59c0,0.779,0.631,1.41,1.41,1.41h0.006c0.374,0,0.733-0.149,0.997-0.413L46,52h4c2.209,0,4-1.791,4-4v-5 H27.058z"/></g></svg>